<?xml version="1.0" encoding="UTF-8" standalone="no"?>
<!-- Created with Inkscape (http://www.inkscape.org/) -->

<svg
   version="1.1"
   id="svg2"
   xml:space="preserve"
   width="6011.6572"
   height="4011.6548"
   viewBox="0 0 6011.6572 4011.6548"
   sodipodi:docname="6e7a5c53468a37e3c6b826d6405ea65c.eps"
   xmlns:inkscape="http://www.inkscape.org/namespaces/inkscape"
   xmlns:sodipodi="http://sodipodi.sourceforge.net/DTD/sodipodi-0.dtd"
   xmlns="http://www.w3.org/2000/svg"
   xmlns:svg="http://www.w3.org/2000/svg"><defs
     id="defs6"><clipPath
       clipPathUnits="userSpaceOnUse"
       id="clipPath26"><path
         d="m 42812.9,22340.6 c -87,0 -168.5,-3.5 -244.6,-10.6 l -498.5,-14 c -1529.2,-153.7 -2771.5,-447.1 -3726.8,-880.2 -1342.5,-633.3 -2370.2,-1214.3 -3083,-1743 C 33456.7,18476.9 31402.3,16836.5 29096.9,14771.6 26105.3,12004.9 24235,10217.5 23486,9409.41 22559.5,8684.92 21595.5,8126.17 20593.9,7733.2 c -1368.4,-478.86 -2805.5,-718.32 -4311,-718.32 -544.7,0 -1098.2,31.33 -1660.8,93.99 -1557.4,176.21 -3298.9,734.65 -5224.37,1675.27 -58.55,6.99 -113.28,10.51 -164.18,10.51 -138.28,0 -248.35,-25.78 -330.31,-77.27 -685.74,-773.71 -5.27,-1837.77 2041.36,-3192.15 1479.7,-877.46 3056.9,-1316.21 4731.8,-1316.21 137.1,0 274.9,2.93 413.3,8.83 2628.5,86.06 5126.9,935.78 7495.5,2549.18 953.3,588.87 4067.9,3120.74 9343.6,7595.67 1447.3,1067.8 2951.3,1914.7 4511.8,2540.7 1285,502.9 2763.7,754.4 4436.2,754.4 992.5,0 2053.2,-88.6 3182.2,-265.7 v 4539.7 h 0.3 -0.3 0.3 c -958.2,272.5 -1707,408.8 -2246.4,408.8 z"
         id="path24" /></clipPath><linearGradient
       x1="1228.78"
       y1="701.68298"
       x2="1754.42"
       y2="1382.59"
       gradientUnits="userSpaceOnUse"
       gradientTransform="matrix(7.5,0,0,-7.5,18043.8,22141.2)"
       spreadMethod="pad"
       id="linearGradient34"><stop
         style="stop-opacity:1;stop-color:#da40bf"
         offset="0"
         id="stop30" /><stop
         style="stop-opacity:1;stop-color:#3e0d56"
         offset="1"
         id="stop32" /></linearGradient><clipPath
       clipPathUnits="userSpaceOnUse"
       id="clipPath44"><path
         d="m 42280.3,18751.4 -310.1,-4.8 c -1638.6,-18.2 -4047.5,-805.3 -7226.9,-2361.4 -619.7,-279.8 -1733.2,-1010.3 -3340.2,-2191.4 -1576.6,-1180 -3585.6,-2808.3 -6027,-4884.93 -885.7,-657.93 -1500,-1082.82 -1842.7,-1274.65 -1444.2,-740.24 -2533.7,-1209.88 -3268.6,-1408.99 -874.4,-278.67 -1673.2,-445.85 -2396.2,-501.6 -158.9,-8.59 -317.9,-12.89 -477,-12.89 -1726.6,0 -3466.3,506.25 -5219.1,1518.75 -637.7,330.04 -2756.76,1980.28 -6357.3,4950.71 -1088.32,791.6 -2278.17,1488.2 -3569.5,2089.9 -819.41,351.1 -1562.97,603.4 -2230.7,757 H 14.9219 15 14.8008 V 6056.52 H 15 C 3275.94,3628.98 8489.45,2312.34 15655.6,2106.6 c 86.5,-0.98 172.4,-1.48 257.8,-1.48 2720.3,0 4913.1,508.86 6578.5,1526.6 1799.9,1080.62 4802.5,3772.19 9008,8074.68 934.2,696.1 2463.3,1478.1 4587.2,2345.9 1844.5,587.4 3544.3,881.1 5099.5,881.1 1415.1,0 2710.5,-243.2 3886.1,-729.6 v 4210.9 h 0.2 -0.1 0.2 -0.2 0.1 c -633.8,143.5 -1242.9,241.2 -1827.3,292.9 z m 2792.4,-336.7 h 0.2 z m 0.2,0 z M 14.9219,15427.1 h -0.1211 z m -0.1211,0 z"
         id="path42" /></clipPath><linearGradient
       x1="245.064"
       y1="-587.36603"
       x2="590.67603"
       y2="2415.3601"
       gradientUnits="userSpaceOnUse"
       gradientTransform="matrix(7.5,0,0,-7.5,18043.8,22141.2)"
       spreadMethod="pad"
       id="linearGradient52"><stop
         style="stop-opacity:1;stop-color:#da40bf"
         offset="0"
         id="stop48" /><stop
         style="stop-opacity:1;stop-color:#3e0d56"
         offset="1"
         id="stop50" /></linearGradient><clipPath
       clipPathUnits="userSpaceOnUse"
       id="clipPath62"><path
         d="m 1685.51,11120.2 -267.97,-5.9 C 934.41,11092.9 473.051,11013.1 33.4414,10874.8 h 0.1875 v -5100 h 0.1992 c 15.7813,-11.28 31.6407,-22.57 47.6211,-33.82 C 1127.03,4915.7 2996.05,4148.67 5688.44,3439.84 6893.16,3103.48 8658.55,2716.8 10984.6,2279.8 c 1186.8,-206.05 2447.3,-309.1 3781.7,-309.1 19.8,0 39.5,0.04 59.3,0.08 813.5,16.49 1544.6,98.95 2193.4,247.38 l 2159.7,1160.51 c -368.6,-98.59 -771.7,-147.89 -1209.3,-147.89 -361.3,0 -746.3,33.63 -1154.9,100.9 -779.3,135.51 -1618.2,406.48 -2516.8,812.97 -449.5,218.32 -970.6,535.23 -1563.2,950.74 -3769.11,2928.32 -5850.28,4440.47 -6243.52,4536.45 -997.15,529.76 -1798.44,889.76 -2403.87,1079.96 -851.25,272.2 -1651.8,408.4 -2401.6,408.4 z"
         id="path60" /></clipPath><linearGradient
       x1="-826.112"
       y1="1516.27"
       x2="-1210.99"
       y2="2337.0901"
       gradientUnits="userSpaceOnUse"
       gradientTransform="matrix(7.5,0,0,-7.5,18043.8,22141.2)"
       spreadMethod="pad"
       id="linearGradient70"><stop
         style="stop-opacity:1;stop-color:#da40bf"
         offset="0"
         id="stop66" /><stop
         style="stop-opacity:1;stop-color:#1f0131"
         offset="1"
         id="stop68" /></linearGradient><clipPath
       clipPathUnits="userSpaceOnUse"
       id="clipPath80"><path
         d="m 42633.4,16704.1 -376.5,-4.9 c -1589.7,-53 -3163,-313.7 -4719.9,-782 -1454.5,-425.7 -2731.5,-958.6 -3831.1,-1598.8 -696.8,-342.1 -1489,-893.8 -2376.6,-1655.1 L 24694.5,7004.1 C 23024.3,5792.03 21269.2,4767.03 19429.3,3929.14 17990.6,3242.81 16807.4,2820.39 15879.7,2661.84 c -609,-94.77 -1206.1,-142.15 -1791.4,-142.15 -530.6,0 -1051.5,38.94 -1562.5,116.83 h -0.1 c 1347.6,-706.72 2648,-1088.55 3901.4,-1145.47 2585.6,150.47 5175.6,956.8 7770.1,2419.03 1038.9,644.14 1776.4,1146.37 2212.8,1506.76 2698.7,2527.61 4813.5,4417.18 6344.3,5668.76 1728.5,1185.7 3078.4,1920.2 4049.4,2203.3 1280.4,322.9 2481.9,484.3 3604.2,484.3 1746.2,0 3301,-390.7 4664.5,-1172.2 v 3871.9 h 0.3 l -0.3,0.1 0.2,-0.1 c -770.6,154.2 -1583.6,231.2 -2439.2,231.2 z"
         id="path78" /></clipPath><linearGradient
       x1="1619"
       y1="712.88702"
       x2="2120.8"
       y2="1746.17"
       gradientUnits="userSpaceOnUse"
       gradientTransform="matrix(7.5,0,0,-7.5,18043.8,22141.2)"
       spreadMethod="pad"
       id="linearGradient88"><stop
         style="stop-opacity:1;stop-color:#da40bf"
         offset="0"
         id="stop84" /><stop
         style="stop-opacity:1;stop-color:#1f0131"
         offset="1"
         id="stop86" /></linearGradient><clipPath
       clipPathUnits="userSpaceOnUse"
       id="clipPath98"><path
         d="m 40390.5,12602.7 -579.4,-13.7 c -1555.4,-73.3 -3192.2,-439.6 -4910.4,-1099.1 -1062.2,-468.1 -2252.6,-1233.1 -3571.3,-2294.7 -1325.1,-1080.36 -2765.5,-2420 -4321.3,-4018.95 -1292.9,-1317.3 -2175,-2330.63 -2646.4,-3040.04 -235.8,-354.69 -368.8,-633.4 -399.2,-836.09 l 31.4,-247.07 c 130,-248.64 451.7,-372.929 965,-372.929 55.8,0 113.9,1.442 174.2,4.371 551.1,43.047 1057.7,125.199 1519.8,246.488 5060.3,1317.97 8019.3,2055 8876.9,2211.09 l 2415.5,431.29 c 2851,327.66 4657.9,577.85 5420.6,750.59 506.6,95.7 1072.9,249.17 1698.8,460.35 h 0.3 v 6799.2 h 0.2 -0.2 0.2 c -440.3,204.4 -889.1,378 -1346.5,520.9 -425.3,132.9 -858,239.2 -1298,319 l -665.7,99.6 c -447.4,53.2 -902.3,79.7 -1364.5,79.7 z"
         id="path96" /></clipPath><linearGradient
       x1="1494.84"
       y1="1117.0699"
       x2="1885.51"
       y2="2364.72"
       gradientUnits="userSpaceOnUse"
       gradientTransform="matrix(7.5,0,0,-7.5,18043.8,22141.2)"
       spreadMethod="pad"
       id="linearGradient106"><stop
         style="stop-opacity:1;stop-color:#da40bf"
         offset="0"
         id="stop102" /><stop
         style="stop-opacity:1;stop-color:#3e0d56"
         offset="1"
         id="stop104" /></linearGradient><clipPath
       clipPathUnits="userSpaceOnUse"
       id="clipPath116"><path
         d="m 39440.7,9086.64 c -1258.4,0 -2806.4,-256.05 -4643.9,-768.12 C 32417.7,7559.49 28358.2,5170.74 22618.6,1152.3 21703.1,713.48 20813.1,494.023 19948.4,494.023 c -86.9,0 -173.6,2.227 -259.9,6.68 -43.3,-1.402 -86.9,-2.113 -131,-2.113 -1024.4,0 -2259.8,376.101 -3705.9,1128.25 -5849.3,3928.43 -9254.18,6110.93 -10214.49,6547.42 -834.96,320.78 -1475.08,537.85 -1920.31,651.21 -409.03,134.22 -1064.03,220.27 -1964.96,258.12 l -134.38,-1.29 C 1259.84,9075.51 907.539,9041.52 560.469,8980.27 370.512,8875.55 186.84,8769.34 9.44922,8661.68 l 0.19922,-0.04 V 46.25 C 9.64844,27.4219 24.9219,12.1523 43.75,12.1523 L 45043.8,12.1094 c 9,0 17.7,3.5937 24.1,10 6.4,6.4101 10,15.082 10,24.1406 v 7726.6 h 0.2 -0.2 0.2 c -1568.5,766.29 -3204.3,1193.67 -4907.4,1282.19 -231.4,21.09 -474.7,31.6 -730,31.6 z"
         id="path114" /></clipPath><linearGradient
       x1="34.025398"
       y1="1557.23"
       x2="310.375"
       y2="4044.7"
       gradientUnits="userSpaceOnUse"
       gradientTransform="matrix(7.5,0,0,-7.5,18043.8,22141.2)"
       spreadMethod="pad"
       id="linearGradient124"><stop
         style="stop-opacity:1;stop-color:#88248a"
         offset="0"
         id="stop120" /><stop
         style="stop-opacity:1;stop-color:#000000"
         offset="1"
         id="stop122" /></linearGradient><clipPath
       clipPathUnits="userSpaceOnUse"
       id="clipPath134"><path
         d="m 40606.7,4148.98 -774.9,-17.53 C 37333.8,4049.57 34616,3312.54 31678.5,1920.39 L 30081.4,1096.84 28751.8,256.992 28461.7,23.1602 h 16582.1 c 6.1,0 11.9,2.4296 16.3,6.7617 4.3,4.3398 6.7,10.1992 6.7,16.3281 v 3473.28 h 0.3 -0.3 0.3 c -285,112.5 -599.3,209.81 -943.1,291.99 -679.8,198.21 -1852.3,310.71 -3517.3,337.46 z"
         id="path132" /></clipPath><linearGradient
       x1="2624.8301"
       y1="1645.8101"
       x2="3088.5701"
       y2="3297.4299"
       gradientUnits="userSpaceOnUse"
       gradientTransform="matrix(7.5,0,0,-7.5,18043.8,22141.2)"
       spreadMethod="pad"
       id="linearGradient142"><stop
         style="stop-opacity:1;stop-color:#88248a"
         offset="0"
         id="stop138" /><stop
         style="stop-opacity:1;stop-color:#000000"
         offset="1"
         id="stop140" /></linearGradient><clipPath
       clipPathUnits="userSpaceOnUse"
       id="clipPath152"><path
         d="M 20.6602,5704.61 V 46.25 c 0,-12.7305 10.3593,-23.0898 23.0898,-23.0898 H 10387.8 C 9975.2,502.582 9537.93,957.27 9075.98,1387.15 8566.29,1861.45 8026.56,2305.59 7456.76,2719.61 l -877.23,598.4 C 5319.38,4131.72 4059.96,4732.81 2801.33,5121.33 1769.96,5464.53 843.16,5658.98 20.8594,5704.61 Z"
         id="path150" /></clipPath><linearGradient
       x1="-1515.58"
       y1="2011.9301"
       x2="-2125.6201"
       y2="3039.73"
       gradientUnits="userSpaceOnUse"
       gradientTransform="matrix(7.5,0,0,-7.5,18043.8,22141.2)"
       spreadMethod="pad"
       id="linearGradient158"><stop
         style="stop-opacity:1;stop-color:#88248a"
         offset="0"
         id="stop154" /><stop
         style="stop-opacity:1;stop-color:#000000"
         offset="1"
         id="stop156" /></linearGradient><clipPath
       clipPathUnits="userSpaceOnUse"
       id="clipPath168"><path
         d="m 13.5898,27034.3 v -6474.6 h 0.1993 C 1067.11,20145.2 2019.38,19634.9 2870.55,19028.8 c 852.15,-538.1 3513.98,-2816.3 7985.55,-6834.7 488.3,-403.7 1013.3,-767.8 1574.9,-1092.3 1347.6,-815.6 2963.1,-1249.07 4846.3,-1300.35 2330,158.71 4394.4,756.25 6193.3,1792.45 1002.3,606.3 2232.6,1557.5 3691,2853.5 4139.5,4468.6 6901.6,7175.5 8286.2,8120.8 2231.5,1513.6 4516.2,2758.7 6854.3,3735.4 h -0.2 c -2518.5,-371.7 -4175.6,-780.9 -4971.3,-1227.8 -1344.2,-728.6 -2454.2,-1405.3 -3330.3,-2030.1 -4743,-3595.1 -7918.1,-5871.8 -9525.2,-6830 -1849.8,-1237.6 -3773.3,-1868.6 -5770.4,-1893 l -961.2,43.6 c -527.1,50.4 -1058.3,150.2 -1593.6,299.3 -1070.8,298.2 -2158.1,793.8 -3262.1,1487 -1439.6,921.3 -2866.9,2079.9 -4281.67,3475.9 l -4522.89,5184.3 -891.87,827.5 c -800.67,591.1 -1365.12,931.9 -1693.44,1022.2 -466.05,187.1 -960.782,311 -1484.1409,371.8 z"
         id="path166" /></clipPath><linearGradient
       x1="314.57599"
       y1="285.815"
       x2="51.594501"
       y2="1813.87"
       gradientUnits="userSpaceOnUse"
       gradientTransform="matrix(7.5,0,0,-7.5,18043.8,22141.2)"
       spreadMethod="pad"
       id="linearGradient178"><stop
         style="stop-opacity:1;stop-color:#88248a"
         offset="0"
         id="stop172" /><stop
         style="stop-opacity:1;stop-color:#4a0f56"
         offset="0.645151"
         id="stop174" /><stop
         style="stop-opacity:1;stop-color:#1f0131"
         offset="1"
         id="stop176" /></linearGradient></defs><sodipodi:namedview
     id="namedview4"
     pagecolor="#ffffff"
     bordercolor="#666666"
     borderopacity="1.0"
     inkscape:pageshadow="2"
     inkscape:pageopacity="0.0"
     inkscape:pagecheckerboard="0" /><g
     id="g8"
     inkscape:groupmode="layer"
     inkscape:label="ink_ext_XXXXXX"
     transform="matrix(1.3333333,0,0,-1.3333333,0,4011.9882)"><g
       id="g10"
       transform="scale(0.1)"><g
         id="g12"
         transform="scale(2.76342)"><path
           d="M 15.8318,10872.8 H 16300 V 16.7365 H 15.8318"
           style="fill:#ffffff;fill-opacity:1;fill-rule:nonzero;stroke:none"
           id="path14" /></g><g
         id="g16"
         transform="scale(2.7661)"><path
           d="m 15.8165,10878.1 c -4.1942,0 -8.21753,-1.7 -11.18595,-4.6 C 1.66638,10870.5 0,10866.5 0,10862.3 V 16.7203 C 0,7.97884 7.08917,0.903798 15.8165,0.903798 H 16284.2 c 4.2,0 8.2,1.666382 11.2,4.631962 2.9,2.967 4.6,6.99174 4.6,11.18454 V 10862.3 c 0,8.7 -7.1,15.8 -15.8,15.8 z"
           style="fill:#000000;fill-opacity:1;fill-rule:nonzero;stroke:none"
           id="path18" /></g><g
         id="g20"><g
           id="g22"
           clip-path="url(#clipPath26)"><g
             id="g28"
             transform="scale(2.76437)"><path
               d="m 15487.4,8081.63 c -31.5,0 -61,-1.27 -88.5,-3.84 l -180.3,-5.06 C 14665.4,8017.13 14216,7910.99 13870.4,7754.31 13384.8,7525.23 13013,7315.05 12755.1,7123.78 12102.8,6683.93 11359.7,6090.54 10525.7,5343.58 9443.47,4342.72 8766.9,3696.12 8495.97,3403.82 8160.82,3141.73 7812.09,2939.61 7449.78,2797.45 6954.74,2624.23 6434.9,2537.6 5890.25,2537.6 c -197.01,0 -397.25,11.34 -600.75,34 -563.39,63.75 -1193.36,265.76 -1889.91,606.03 -21.18,2.53 -40.98,3.8 -59.39,3.8 -50.02,0 -89.84,-9.33 -119.49,-27.95 -248.06,-279.89 -1.91,-664.81 738.44,-1154.75 535.28,-317.42 1105.84,-476.13 1711.71,-476.13 49.6,0 99.44,1.06 149.52,3.19 950.84,31.13 1854.65,338.52 2711.45,922.16 344.88,213.02 1471.57,1128.91 3379.97,2747.7 523.6,386.27 1067.7,692.63 1632.2,919.07 464.8,181.93 999.8,272.91 1604.7,272.91 359.1,0 742.8,-32.05 1151.2,-96.12 v 1642.21 h 0.1 -0.1 0.1 c -346.6,98.61 -617.5,147.91 -812.6,147.91 z"
               style="fill:url(#linearGradient34);fill-opacity:1;fill-rule:nonzero;stroke:none"
               id="path36" /></g></g></g><g
         id="g38"><g
           id="g40"
           clip-path="url(#clipPath44)"><g
             id="g46"
             transform="scale(2.76521)"><path
               d="m 15290.1,6781.17 -112.2,-1.74 c -592.5,-6.55 -1463.7,-291.22 -2613.5,-853.97 -224.1,-101.17 -626.8,-365.34 -1207.9,-792.48 -570.2,-426.71 -1296.7,-1015.57 -2179.6,-1766.56 -320.31,-237.93 -542.44,-391.59 -666.39,-460.96 -522.27,-267.7 -916.28,-437.53 -1182.04,-509.54 -316.21,-100.78 -605.07,-161.24 -866.56,-181.4 -57.45,-3.1 -114.96,-4.66 -172.5,-4.66 -624.38,0 -1253.52,183.08 -1887.4,549.24 -230.6,119.35 -996.94,716.14 -2299.03,1790.35 -393.57,286.26 -823.86,538.19 -1290.855,755.78 C 515.797,5432.19 246.9,5523.45 5.42454,5579.01 H 5.39628 5.42454 L 5.35249,5579 V 2190.26 H 5.42454 C 1184.7,1312.37 3070.09,836.225 5661.63,761.823 c 31.27,-0.355 62.35,-0.536 93.24,-0.536 983.75,0 1776.75,184.022 2379.01,552.073 650.89,390.79 1736.76,1364.16 3257.62,2920.1 337.8,251.74 890.8,534.52 1658.9,848.37 667,212.42 1281.7,318.62 1844.1,318.62 511.8,0 980.3,-87.95 1405.4,-263.84 v 1522.8 h 0.1 -0.1 0.1 -0.1 0.1 c -229.2,51.92 -449.5,87.22 -660.9,105.94 z m 1009.8,-121.76 h 0.1 z m 0.1,0 z M 5.39628,5579.01 5.35249,5579 Z"
               style="fill:url(#linearGradient52);fill-opacity:1;fill-rule:nonzero;stroke:none"
               id="path54" /></g></g></g><g
         id="g56"><g
           id="g58"
           clip-path="url(#clipPath62)"><g
             id="g64"
             transform="scale(1.17661)"><path
               d="m 1432.52,9451.05 -227.75,-5.01 C 794.158,9427.84 402.047,9360.02 28.4219,9242.52 h 0.1594 v -4334.5 h 0.1693 c 13.4125,-9.59 26.8915,-19.19 40.4733,-28.75 C 957.867,4177.87 2546.35,3525.97 4834.62,2923.53 c 1023.89,-285.87 2524.3,-614.51 4501.26,-985.92 1008.62,-175.12 2079.92,-262.7 3214.02,-262.7 16.8,0 33.6,0.03 50.4,0.06 691.4,14.02 1312.8,84.1 1864.2,210.25 l 1835.5,986.32 c -313.2,-83.79 -655.8,-125.69 -1027.7,-125.69 -307.2,0 -634.4,28.58 -981.6,85.75 -662.3,115.17 -1375.4,345.47 -2139.1,690.95 -382,185.55 -824.9,454.89 -1328.5,808.04 -3203.39,2488.78 -4972.19,3773.96 -5306.4,3855.53 -847.48,450.22 -1528.5,756.18 -2043.06,917.83 -723.48,231.4 -1403.87,347.1 -2041.12,347.1 z"
               style="fill:url(#linearGradient70);fill-opacity:1;fill-rule:nonzero;stroke:none"
               id="path72" /></g></g></g><g
         id="g74"><g
           id="g76"
           clip-path="url(#clipPath80)"><g
             id="g82"
             transform="scale(2.76519)"><path
               d="m 15417.9,6040.84 -136.2,-1.76 c -574.9,-19.19 -1143.8,-113.45 -1706.9,-282.81 -526,-153.94 -987.8,-346.67 -1385.5,-578.19 -251.9,-123.72 -538.4,-323.24 -859.4,-598.55 L 8930.49,2532.95 C 8326.47,2094.62 7691.77,1723.94 7026.38,1420.93 6506.1,1172.73 6078.21,1019.96 5742.72,962.623 c -220.25,-34.272 -436.2,-51.406 -647.86,-51.406 -191.89,0 -380.24,14.083 -565.06,42.251 h -0.03 c 487.34,-255.578 957.62,-393.662 1410.9,-414.247 935.05,54.417 1871.7,346.016 2809.95,874.819 375.7,232.94 642.44,414.57 800.23,544.9 975.95,914.08 1740.75,1597.42 2294.35,2050.02 625.1,428.82 1113.3,694.43 1464.4,796.83 463.1,116.76 897.6,175.13 1303.5,175.13 631.4,0 1193.7,-141.3 1686.8,-423.91 v 1400.23 h 0.1 l -0.1,0.02 0.1,-0.02 c -278.7,55.75 -572.7,83.6 -882.1,83.6 z"
               style="fill:url(#linearGradient88);fill-opacity:1;fill-rule:nonzero;stroke:none"
               id="path90" /></g></g></g><g
         id="g92"><g
           id="g94"
           clip-path="url(#clipPath98)"><g
             id="g100"
             transform="scale(2.76474)"><path
               d="m 14609.2,4558.38 -209.6,-4.96 c -562.6,-26.5 -1154.6,-159.01 -1776.1,-397.54 -384.2,-169.33 -814.8,-446 -1291.7,-830 C 10852.5,2935.12 10331.5,2450.58 9768.76,1872.24 9301.15,1395.77 8982.09,1029.26 8811.57,772.663 8726.3,644.373 8678.18,543.564 8667.2,470.251 l 11.36,-89.365 c 47.01,-89.933 163.34,-134.888 349.03,-134.888 20.17,0 41.18,0.522 63,1.581 199.34,15.57 382.58,45.285 549.69,89.155 1830.32,476.706 2900.62,743.286 3210.82,799.746 l 873.7,156 c 1031.1,118.51 1684.7,209 1960.6,271.48 183.2,34.62 388,90.13 614.4,166.51 h 0.1 v 2459.25 h 0.1 l -0.1,0.01 0.1,-0.01 c -159.3,73.94 -321.6,136.74 -487,188.43 -153.9,48.07 -310.4,86.52 -469.5,115.35 l -240.8,36.05 c -161.8,19.23 -326.4,28.83 -493.5,28.83 z"
               style="fill:url(#linearGradient106);fill-opacity:1;fill-rule:nonzero;stroke:none"
               id="path108" /></g></g></g><g
         id="g110"><g
           id="g112"
           clip-path="url(#clipPath116)"><g
             id="g118"
             transform="scale(2.76553)"><path
               d="m 14261.6,3285.68 c -455.1,0 -1014.9,-92.59 -1679.3,-277.75 C 11722,2733.47 10254.2,1869.71 8178.74,416.666 7847.73,257.991 7525.9,178.636 7213.23,178.636 c -31.41,0 -62.76,0.805 -93.98,2.415 -15.65,-0.507 -31.43,-0.764 -47.37,-0.764 -370.43,0 -817.12,135.997 -1340.01,407.969 C 3616.77,2008.76 2385.59,2797.94 2038.35,2955.77 c -301.92,115.99 -533.38,194.48 -694.38,235.47 -147.9,48.53 -384.743,79.65 -710.514,93.34 l -48.591,-0.47 C 455.551,3281.65 328.161,3269.36 202.662,3247.22 133.975,3209.35 67.5603,3170.94 3.41679,3132.02 L 3.48882,3132 V 16.7237 C 3.48882,9.9156 9.01161,4.39422 15.8198,4.39422 L 16287.6,4.37868 c 3.2,0 6.4,1.29948 8.7,3.61595 2.3,2.31787 3.6,5.45357 3.6,8.72907 V 2810.62 h 0.1 -0.1 0.1 c -567.2,277.09 -1158.7,431.63 -1774.5,463.63 -83.7,7.63 -171.7,11.43 -263.9,11.43 z"
               style="fill:url(#linearGradient124);fill-opacity:1;fill-rule:nonzero;stroke:none"
               id="path126" /></g></g></g><g
         id="g128"><g
           id="g130"
           clip-path="url(#clipPath134)"><g
             id="g136"
             transform="scale(2.76485)"><path
               d="m 14686.7,1500.62 -280.2,-6.35 C 13503,1464.66 12520,1198.09 11457.6,694.572 L 10879.9,396.708 10399,92.9497 10294.1,8.37663 h 5997.5 c 2.2,0 4.3,0.87878 5.9,2.44557 1.5,1.5697 2.4,3.6889 2.4,5.9056 V 1272.95 h 0.1 -0.1 0.1 c -103.1,40.69 -216.8,75.89 -341.1,105.61 -245.9,71.69 -669.9,112.38 -1272.2,122.06 z"
               style="fill:url(#linearGradient142);fill-opacity:1;fill-rule:nonzero;stroke:none"
               id="path144" /></g></g></g><g
         id="g146"><g
           id="g148"
           clip-path="url(#clipPath152)"><path
             d="M 20.6602,5704.61 V 46.25 c 0,-12.7305 10.3593,-23.0898 23.0898,-23.0898 H 10387.8 C 9975.2,502.582 9537.93,957.27 9075.98,1387.15 8566.29,1861.45 8026.56,2305.59 7456.76,2719.61 l -877.23,598.4 C 5319.38,4131.72 4059.96,4732.81 2801.33,5121.33 1769.96,5464.53 843.16,5658.98 20.8594,5704.61 Z"
             style="fill:url(#linearGradient158);fill-opacity:1;fill-rule:nonzero;stroke:none"
             id="path160" /></g></g><g
         id="g162"><g
           id="g164"
           clip-path="url(#clipPath168)"><g
             id="g170"
             transform="scale(2.59522)"><path
               d="M 5.23649,10417 V 7922.15 H 5.31325 C 411.182,7762.43 778.114,7565.8 1106.09,7332.23 1434.44,7124.92 2460.11,6247.06 4183.11,4698.66 c 188.16,-155.54 390.44,-295.84 606.84,-420.87 519.28,-314.29 1141.74,-481.3 1867.4,-501.06 897.8,61.15 1693.28,291.39 2386.42,690.68 386.21,233.63 860.28,600.12 1422.23,1099.51 1595,1721.85 2659.3,2764.9 3192.9,3129.14 859.8,583.24 1740.2,1063.01 2641.1,1439.34 h -0.1 c -970.4,-143.21 -1608.9,-300.92 -1915.6,-473.1 -517.9,-280.75 -945.6,-541.49 -1283.2,-782.25 -1827.6,-1385.28 -3051,-2262.54 -3670.27,-2631.77 -712.78,-476.87 -1453.94,-720 -2223.49,-729.41 l -370.36,16.82 c -203.09,19.41 -407.77,57.85 -614.05,115.31 -412.58,114.9 -831.56,305.89 -1256.95,572.97 -554.73,354.99 -1104.68,801.44 -1649.84,1339.36 l -1742.77,1997.61 -343.66,318.88 c -308.517,227.78 -526.013,359.08 -652.522,393.88 -179.581,72.1 -370.212,119.8 -571.87475,143.3 z"
               style="fill:url(#linearGradient178);fill-opacity:1;fill-rule:nonzero;stroke:none"
               id="path180" /></g></g></g></g></g></svg>
